<?xml version="1.0" encoding="UTF-8"?>
<svg width="1024px" height="1024px" viewBox="0 0 1024 1024" version="1.1" xmlns="http://www.w3.org/2000/svg" xmlns:xlink="http://www.w3.org/1999/xlink">
    <title>App Icon Square</title>
    <g id="Page-1" stroke="none" stroke-width="1" fill="none" fill-rule="evenodd">
        <g id="App-Icon-Square" fill-rule="nonzero">
            <path d="M656,0 L368,0 C239.188,0 174.782,0 125.582,25.0685 C82.3049,47.1194 47.1194,82.3049 25.0685,125.582 C0,174.782 0,239.188 0,368 L0,656 C0,784.812 0,849.218 25.0685,898.418 C47.1194,941.695 82.3049,976.881 125.582,998.932 C174.782,1024 239.188,1024 368,1024 L656,1024 C784.812,1024 849.218,1024 898.418,998.932 C941.695,976.881 976.881,941.695 998.932,898.418 C1024,849.218 1024,784.812 1024,656 L1024,368 C1024,239.188 1024,174.782 998.932,125.582 C976.881,82.3049 941.695,47.1194 898.418,25.0685 C849.218,0 784.812,0 656,0 Z" id="Path" fill="#FFFFFF"></path>
            <path d="M429.908,848 C449.753,848 465.176,839.881 476.178,823.644 L843.173,255.463 C847.314,249.161 850.229,243.272 851.92,237.797 C853.606,232.322 854.449,227.018 854.449,221.885 C854.449,208.52 850.067,197.532 841.302,188.919 C832.537,180.306 821.32,176 807.651,176 C798.201,176 790.306,177.867 783.966,181.602 C777.626,185.337 771.534,191.766 765.691,200.889 L428.382,733.368 L256.634,518.296 C245.911,504.83 232.725,498.097 217.074,498.097 C203.228,498.097 191.845,502.473 182.927,511.226 C174.009,519.979 169.551,531.165 169.551,544.783 C169.551,550.753 170.643,556.559 172.828,562.199 C175.013,567.839 178.633,573.696 183.689,579.769 L383.525,824.711 C396.153,840.237 411.614,848 429.908,848 Z" id="Path" fill="#007AFF"></path>
        </g>
    </g>
</svg>