<?xml version="1.0" encoding="UTF-8"?>
<svg width="217px" height="217px" viewBox="0 0 217 217" version="1.1" xmlns="http://www.w3.org/2000/svg" xmlns:xlink="http://www.w3.org/1999/xlink">
    <title>Regular-S</title>
    <g id="Page-1" stroke="none" stroke-width="1" fill="none" fill-rule="evenodd">
        <g id="Regular-S" transform="translate(0.645390, 0.595712)" fill-rule="nonzero">
            <path d="M37.7777925,216 L178.073948,216 C190.71592,216 200.172721,212.888887 206.444353,206.66666 C212.715985,200.444443 215.851801,191.111077 215.851801,178.666563 L215.851801,37.3333614 C215.851801,24.8890088 212.715985,15.5556937 206.444353,9.33341621 C200.172721,3.11113874 190.71592,0 178.073948,0 L37.7777925,0 C25.234529,0 15.8024043,3.11113874 9.4814183,9.33341621 C3.16047277,15.5556937 5.38959681e-15,24.8890088 5.38959681e-15,37.3333614 L5.38959681e-15,178.666563 C5.38959681e-15,191.111077 3.16047277,200.444443 9.4814183,206.66666 C15.8024043,212.888887 25.234529,216 37.7777925,216 Z" id="Path" fill="#007AFF"></path>
            <path d="M58.3703512,130.518551 L58.3703512,65.7777984 C58.3703512,63.6049974 59.1852022,61.7284231 60.814904,60.1480754 C62.4444037,58.5679301 64.3950094,57.7778574 66.6667212,57.7778574 C68.7408137,57.7778574 70.5679326,58.5679301 72.1480779,60.1480754 C73.7284256,61.7284231 74.5185994,63.6049974 74.5185994,65.7777984 L74.5185994,106.66679 C75.4073806,106.271754 76.2468075,105.827262 77.0368802,105.333315 C77.8271552,104.83957 78.7161386,104.39518 79.7038306,104.000143 L79.7038306,44.1481934 C79.7038306,41.9753924 80.4939033,40.0988181 82.0740487,38.5184704 C83.6543963,36.9383251 85.5309706,36.1482524 87.7037716,36.1482524 C89.8765726,36.1482524 91.7530458,36.9383251 93.3331912,38.5184704 C94.9135388,40.0988181 95.7037126,41.9753924 95.7037126,44.1481934 L95.7037126,98.814912 C96.5924938,98.6172927 97.4813762,98.4691288 98.3703512,98.3704203 C99.2593431,98.2717118 100.148225,98.1729021 101.037007,98.0739914 L101.037007,38.8148994 C101.037007,36.6420984 101.802402,34.7655241 103.333193,33.1851764 C104.864187,31.6050311 106.765438,30.8149584 109.036948,30.8149584 C111.209749,30.8149584 113.061646,31.6050311 114.592639,33.1851764 C116.12343,34.7655241 116.888826,36.6420984 116.888826,38.8148994 L116.888826,98.814912 C117.876518,99.0123291 118.814856,99.2592015 119.703839,99.5555293 C120.59262,99.8518572 121.432047,100.049375 122.22212,100.148084 L122.22212,47.9999494 C122.22212,45.8271484 123.012294,43.9506752 124.592641,42.3705299 C126.172787,40.7901822 128.04926,40.0000084 130.222061,40.0000084 C132.296153,40.0000084 134.123373,40.7901822 135.703721,42.3705299 C137.283866,43.9506752 138.073939,45.8271484 138.073939,47.9999494 L138.073939,121.3335 C138.073939,123.012354 138.666595,123.851781 139.851906,123.851781 C140.246942,123.851781 140.641979,123.654263 141.037015,123.259227 C141.432051,122.86419 141.827088,122.172826 142.222124,121.185134 L152.148095,101.481559 C153.925859,97.8271189 155.629593,95.1851491 157.259295,93.5556494 C158.888794,91.9259475 160.938108,91.1110966 163.407237,91.1110966 C165.580241,91.1110966 167.333328,91.7284294 168.6665,92.9630949 C169.999874,94.1975582 170.666561,95.8024818 170.666561,97.7778658 C170.666561,99.654339 170.049329,102.444473 168.814866,106.148267 C167.580201,109.851859 166.419668,113.432066 165.333267,116.888887 C163.85183,121.827144 162.345716,126.493852 160.814925,130.889011 C159.283932,135.283967 157.703685,139.407374 156.074186,143.259231 C154.444484,147.111088 152.641941,150.716073 150.666557,154.074185 C145.728299,162.8643 139.703641,169.259317 132.592582,173.259237 C125.481524,177.259157 116.740763,179.259117 106.370301,179.259117 C96.8888217,179.259117 88.5431986,177.259157 81.3334314,173.259237 C74.1234619,169.259317 68.4938401,163.605018 64.4445659,156.29634 C60.3950894,148.987662 58.3703512,140.395066 58.3703512,130.518551 Z" id="Path" fill="#FFFFFF"></path>
        </g>
    </g>
</svg>