<?xml version="1.0" encoding="UTF-8"?>
<svg width="217px" height="217px" viewBox="0 0 217 217" version="1.1" xmlns="http://www.w3.org/2000/svg" xmlns:xlink="http://www.w3.org/1999/xlink">
    <title>Regular-S</title>
    <g id="Page-1" stroke="none" stroke-width="1" fill="none" fill-rule="evenodd">
        <g id="Regular-S" transform="translate(0.361799, 0.404310)" fill-rule="nonzero">
            <path d="M107.999863,216 C122.810324,216 136.728558,213.189594 149.754564,207.568781 C162.780571,201.947969 174.267609,194.141272 184.215678,184.148692 C194.163564,174.156185 201.970233,162.646929 207.635685,149.620922 C213.301136,136.594916 216.133861,122.721266 216.133861,107.999973 C216.133861,93.2788621 213.301136,79.4053036 207.635685,66.3792971 C201.970233,53.3532905 194.141181,41.8439607 184.148528,31.8513076 C174.156058,21.8588373 162.646819,14.0521684 149.620813,8.43130104 C136.594806,2.81043368 122.676572,0 107.866111,0 C93.1450006,0 79.2714421,2.81043368 66.2454356,8.43130104 C53.219429,14.0521684 41.7546832,21.8588373 31.851198,31.8513076 C21.9478955,41.8439607 14.1635369,53.3532905 8.49812216,66.3792971 C2.83270739,79.4053036 -2.43433445e-15,93.2788621 -2.43433445e-15,107.999973 C-2.43433445e-15,122.721266 2.83270739,136.594916 8.49812216,149.620922 C14.1635369,162.646929 21.9701875,174.156185 31.9180739,184.148692 C41.8661431,194.141272 53.3531809,201.947969 66.3791875,207.568781 C79.405194,213.189594 93.2787525,216 107.999863,216 Z" id="Path" fill="#007AFF"></path>
            <path d="M108.133889,113.21931 C107.241662,113.21931 106.30485,113.063175 105.323455,112.750905 C104.34206,112.438634 103.31599,111.747217 102.245244,110.676654 L54.869949,63.3010856 C55.5836577,62.7658954 56.6988961,62.2974898 58.2156642,61.8958688 C59.7322496,61.4944304 61.5611967,61.2937113 63.7025056,61.2937113 L152.431246,61.2937113 C154.572372,61.2937113 156.40132,61.4944304 157.918088,61.8958688 C159.434856,62.2974898 160.550094,62.7658954 161.263803,63.3010856 L113.888508,110.676654 C112.104054,112.371758 110.185847,113.21931 108.133889,113.21931 Z M107.999863,122.721174 C111.65794,122.721174 115.449769,120.936811 119.37535,117.368085 L122.587313,114.423899 L160.996299,152.832611 C159.568699,154.081693 156.669006,154.706234 152.29722,154.706234 L63.7025056,154.706234 C59.3307199,154.706234 56.4311183,154.081693 55.0037009,152.832611 L93.4126871,114.423899 L96.6243764,117.368085 C100.55014,120.936811 104.341969,122.721174 107.999863,122.721174 Z M129.680273,107.999973 L166.750918,71.0633532 C167.375459,72.1339163 167.68773,74.6319882 167.68773,78.557569 L167.68773,137.442376 C167.68773,141.367957 167.375459,143.910704 166.750918,145.070618 L129.680273,107.999973 Z M86.319727,107.999973 L49.1153298,145.070618 C48.5799569,143.910704 48.3122704,141.367957 48.3122704,137.442376 L48.3122704,78.557569 C48.3122704,74.6319882 48.5799569,72.1339163 49.1153298,71.0633532 L86.319727,107.999973 Z" id="Shape" fill="#FFFFFF"></path>
        </g>
    </g>
</svg>